# xmcd
#
# Track frame offsets:
#	150
#	13589
#	32585
#	58755
#	77017
#	93889
#	116139
#	137239
#	164857
#	203218
#	220217
#	235586
#
# Disc length: 3460 seconds
#
# Revision: 1
# Processed by: cddbd v1.5.1PL0 Copyright (c) Steve Scherf et al.
# Submitted via: audiograbber 1.82.01
#
DISCID=a40d820c
DTITLE=Billy Joel - 1972-04-15 - Sigma Sound Studios, Philadelphia, PA
DYEAR=1900
DGENRE=
TTITLE0=Billy Joel - Intro-Falling Of The Rain
TTITLE1=Billy Joel - Travelin' Prayer
TTITLE2=Billy Joel - Ballad Of Billy The Kid
TTITLE3=Billy Joel - She'S Got A Way
TTITLE4=Billy Joel - Everybody Loves You Now
TTITLE5=Billy Joel - Nocturne
TTITLE6=Billy Joel - Turnaround
TTITLE7=Billy Joel - Long Long Time
TTITLE8=Billy Joel - Captain Jack
TTITLE9=Billy Joel - Josephine
TTITLE10=Billy Joel - Rosalinda
TTITLE11=Billy Joel - Tomorrow Is Today
EXTD=
EXTT0=
EXTT1=
EXTT2=
EXTT3=
EXTT4=
EXTT5=
EXTT6=
EXTT7=
EXTT8=
EXTT9=
EXTT10=
EXTT11=
PLAYORDER=
